G75*
%MOIN*%
%OFA0B0*%
%FSLAX25Y25*%
%IPPOS*%
%LPD*%
%AMOC8*
5,1,8,0,0,1.08239X$1,22.5*
%
%ADD10C,0.10000*%
%ADD11OC8,0.05600*%
%ADD12R,0.06400X0.06400*%
%ADD13C,0.07000*%
%ADD14C,0.07400*%
%ADD15OC8,0.07400*%
%ADD16OC8,0.06600*%
%ADD17C,0.06400*%
%ADD18R,0.07000X0.07000*%
%ADD19OC8,0.06400*%
%ADD20R,0.09450X0.09450*%
%ADD21C,0.01600*%
%ADD22C,0.04756*%
%ADD23C,0.07000*%
%ADD24C,0.08600*%
%ADD25C,0.07600*%
D10*
X0024900Y0037813D03*
X0024900Y0051593D03*
X0024900Y0070313D03*
X0024900Y0084093D03*
X0024900Y0102813D03*
X0024900Y0116593D03*
X0024900Y0136513D03*
X0024900Y0150293D03*
X0024900Y0169613D03*
X0024900Y0183393D03*
D11*
X0089200Y0171800D03*
X0089200Y0131800D03*
X0189900Y0129200D03*
X0199900Y0129200D03*
X0199900Y0149900D03*
X0189900Y0149900D03*
X0250700Y0139900D03*
X0270500Y0139900D03*
X0290400Y0139900D03*
X0309900Y0139900D03*
X0309900Y0179900D03*
X0290400Y0179900D03*
X0270500Y0179900D03*
X0250700Y0179900D03*
X0199900Y0107400D03*
X0189900Y0107400D03*
X0189900Y0082900D03*
X0199900Y0082900D03*
X0199900Y0061500D03*
X0189900Y0061500D03*
X0214600Y0053500D03*
X0224600Y0053500D03*
X0317200Y0081900D03*
X0327200Y0081900D03*
D12*
X0326900Y0107900D03*
D13*
X0316900Y0107900D03*
X0306900Y0107900D03*
X0296900Y0107900D03*
X0286900Y0107900D03*
X0276900Y0107900D03*
X0226300Y0107200D03*
X0226300Y0097200D03*
X0226300Y0087200D03*
X0226300Y0077200D03*
X0166300Y0077200D03*
X0166300Y0067200D03*
X0166300Y0057200D03*
X0166300Y0087200D03*
X0166300Y0097200D03*
X0166300Y0107200D03*
X0166300Y0117200D03*
X0166300Y0127200D03*
X0166300Y0137200D03*
X0166300Y0147200D03*
X0166300Y0157200D03*
X0166300Y0167200D03*
X0226300Y0137200D03*
X0226300Y0127200D03*
X0226300Y0117200D03*
X0286900Y0037900D03*
X0296900Y0037900D03*
X0306900Y0037900D03*
X0316900Y0037900D03*
D14*
X0315000Y0015000D03*
X0305000Y0015000D03*
X0295000Y0015000D03*
X0275000Y0015000D03*
X0265000Y0015000D03*
X0255000Y0015000D03*
X0245000Y0015000D03*
X0235000Y0015000D03*
X0225000Y0015000D03*
X0215000Y0015000D03*
X0205000Y0015000D03*
X0185000Y0015000D03*
X0175000Y0015000D03*
X0165000Y0015000D03*
X0155000Y0015000D03*
X0145000Y0015000D03*
X0135000Y0015000D03*
X0125000Y0015000D03*
X0115000Y0015000D03*
X0325000Y0015000D03*
X0335000Y0015000D03*
X0345000Y0015000D03*
X0355000Y0015000D03*
X0365000Y0015000D03*
X0375000Y0035000D03*
X0385000Y0035000D03*
X0385000Y0205000D03*
X0375000Y0205000D03*
X0345000Y0205000D03*
X0335000Y0205000D03*
X0325000Y0205000D03*
X0315000Y0205000D03*
X0305000Y0205000D03*
X0295000Y0205000D03*
X0285000Y0205000D03*
X0275000Y0205000D03*
X0255000Y0205000D03*
X0245000Y0205000D03*
X0235000Y0205000D03*
X0225000Y0205000D03*
X0215000Y0205000D03*
X0205000Y0205000D03*
X0195000Y0205000D03*
X0185000Y0205000D03*
X0169000Y0205000D03*
X0159000Y0205000D03*
X0149000Y0205000D03*
X0139000Y0205000D03*
X0129000Y0205000D03*
X0119000Y0205000D03*
X0109000Y0205000D03*
X0099000Y0205000D03*
X0089000Y0205000D03*
X0079000Y0205000D03*
D15*
X0375000Y0195000D03*
X0385000Y0195000D03*
X0385000Y0185000D03*
X0375000Y0185000D03*
X0375000Y0175000D03*
X0385000Y0175000D03*
X0385000Y0165000D03*
X0375000Y0165000D03*
X0375000Y0155000D03*
X0385000Y0155000D03*
X0385000Y0145000D03*
X0375000Y0145000D03*
X0375000Y0135000D03*
X0385000Y0135000D03*
X0385000Y0125000D03*
X0375000Y0125000D03*
X0375000Y0115000D03*
X0385000Y0115000D03*
X0385000Y0105000D03*
X0375000Y0105000D03*
X0375000Y0095000D03*
X0385000Y0095000D03*
X0385000Y0085000D03*
X0375000Y0085000D03*
X0375000Y0075000D03*
X0385000Y0075000D03*
X0385000Y0065000D03*
X0375000Y0065000D03*
X0375000Y0055000D03*
X0385000Y0055000D03*
X0385000Y0045000D03*
X0375000Y0045000D03*
D16*
X0103800Y0172100D03*
X0103800Y0182100D03*
D17*
X0084900Y0102100D02*
X0084900Y0095700D01*
X0064900Y0095700D02*
X0064900Y0102100D01*
X0064900Y0059600D02*
X0064900Y0053200D01*
X0084900Y0053200D02*
X0084900Y0059600D01*
X0079300Y0040100D02*
X0072900Y0040100D01*
X0098500Y0040100D02*
X0104900Y0040100D01*
X0104900Y0022300D02*
X0098500Y0022300D01*
X0079300Y0022300D02*
X0072900Y0022300D01*
D18*
X0166300Y0047200D03*
D19*
X0129900Y0056100D03*
X0129900Y0066100D03*
X0129900Y0076100D03*
X0129900Y0086100D03*
X0129900Y0096100D03*
X0129900Y0106100D03*
X0129900Y0130400D03*
X0129900Y0140400D03*
X0129900Y0150400D03*
X0129900Y0160400D03*
X0129900Y0170400D03*
X0129900Y0180400D03*
D20*
X0069100Y0172700D03*
X0055700Y0172700D03*
X0055700Y0133700D03*
X0069100Y0133700D03*
D21*
X0089200Y0131800D02*
X0089200Y0145400D01*
X0094100Y0150300D01*
X0129800Y0150300D01*
X0129900Y0150400D01*
X0103800Y0172100D02*
X0089000Y0172000D01*
X0089200Y0171800D01*
X0103800Y0182100D02*
X0103900Y0182200D01*
X0112000Y0182200D01*
X0119000Y0189200D01*
X0119000Y0205000D01*
X0146400Y0183500D02*
X0151000Y0189500D01*
X0212100Y0189500D01*
X0225000Y0202400D01*
X0225000Y0205000D01*
X0235000Y0205000D02*
X0235000Y0201900D01*
X0216300Y0183200D01*
X0159800Y0183200D01*
X0154400Y0177600D01*
X0154400Y0120400D01*
X0129900Y0096100D01*
X0129900Y0086100D02*
X0127893Y0084093D01*
X0024900Y0084093D01*
X0076100Y0040100D02*
X0101700Y0040100D01*
X0150000Y0040100D01*
X0148100Y0042000D01*
X0148100Y0067800D01*
X0139800Y0076100D01*
X0129900Y0076100D01*
X0129900Y0106100D02*
X0146400Y0121200D01*
X0146400Y0183500D01*
X0199900Y0149900D02*
X0199900Y0129200D01*
X0199900Y0107400D01*
X0199900Y0082900D01*
X0199900Y0061500D01*
X0214000Y0054100D02*
X0214600Y0053500D01*
X0214000Y0054100D02*
X0214000Y0133600D01*
X0217600Y0137200D01*
X0226300Y0137200D01*
X0286900Y0112300D02*
X0286900Y0107900D01*
X0286900Y0095700D01*
X0278500Y0087300D01*
X0226400Y0087300D01*
X0226300Y0087200D01*
X0286900Y0112300D02*
X0293500Y0118900D01*
X0335100Y0118900D01*
X0345000Y0128800D01*
X0345000Y0205000D01*
X0335000Y0205000D02*
X0335000Y0137700D01*
X0325500Y0128200D01*
X0299400Y0128200D01*
X0297000Y0124900D01*
X0326900Y0107900D02*
X0326900Y0087400D01*
X0327200Y0081900D01*
X0317200Y0081900D02*
X0317200Y0062600D01*
X0344700Y0035100D01*
X0374900Y0035100D01*
X0375000Y0035000D01*
X0385000Y0035000D01*
X0164700Y0025400D02*
X0164700Y0015300D01*
X0165000Y0015000D01*
X0164700Y0025400D02*
X0150000Y0040100D01*
X0135000Y0023600D02*
X0131400Y0027200D01*
X0109000Y0027200D01*
X0104100Y0022300D01*
X0101700Y0022300D01*
X0076100Y0022300D01*
X0135000Y0023600D02*
X0135000Y0015000D01*
X0270500Y0179900D02*
X0259300Y0191100D01*
X0244500Y0191100D01*
X0235000Y0200600D01*
X0235000Y0201900D01*
X0290400Y0179900D02*
X0300200Y0189700D01*
X0309000Y0189700D01*
X0315000Y0195700D01*
X0315000Y0205000D01*
X0325000Y0205000D02*
X0325000Y0187400D01*
X0317500Y0179900D01*
X0309900Y0179900D01*
D22*
X0297000Y0124900D03*
D23*
X0129900Y0130400D02*
X0098400Y0098900D01*
X0084900Y0098900D01*
X0064900Y0098900D02*
X0043900Y0098900D01*
X0039987Y0102813D01*
X0024900Y0102813D01*
X0024900Y0116593D02*
X0089593Y0116593D01*
X0113500Y0140500D01*
X0129800Y0140500D01*
X0129900Y0140400D01*
X0104800Y0073400D02*
X0052300Y0073400D01*
X0030493Y0051593D01*
X0024900Y0051593D01*
X0024900Y0037813D02*
X0038413Y0037813D01*
X0057000Y0056400D01*
X0064900Y0056400D01*
X0084900Y0056400D02*
X0129600Y0056400D01*
X0129900Y0056100D01*
X0129900Y0066100D02*
X0112100Y0066100D01*
X0104800Y0073400D01*
D24*
X0069100Y0133700D02*
X0067187Y0133913D01*
X0059387Y0133613D01*
X0055700Y0133700D01*
D25*
X0052187Y0136513D01*
X0024900Y0136513D01*
X0024900Y0169613D02*
X0050913Y0169613D01*
X0055700Y0172700D01*
X0069100Y0172700D01*
M02*
