%
M48
M72
T01C0.02756
T02C0.03200
T03C0.04000
T04C0.05118
T05C0.06300
T06C0.12598
%
T01
X297000Y124900
T02
X290400Y139900
X309900Y139900
X270500Y139900
X250700Y139900
X199900Y149900
X189900Y149900
X189900Y129200
X199900Y129200
X199900Y107400
X189900Y107400
X189900Y82900
X199900Y82900
X199900Y61500
X189900Y61500
X214600Y53500
X224600Y53500
X317200Y81900
X327200Y81900
X309900Y179900
X290400Y179900
X270500Y179900
X250700Y179900
X103800Y182100
X103800Y172100
X89200Y171800
X89200Y131800
T03
X129900Y130400
X129900Y140400
X129900Y150400
X129900Y160400
X129900Y170400
X129900Y180400
X166300Y167200
X166300Y157200
X166300Y147200
X166300Y137200
X166300Y127200
X166300Y117200
X166300Y107200
X166300Y97200
X166300Y87200
X166300Y77200
X166300Y67200
X166300Y57200
X166300Y47200
X129900Y56100
X129900Y66100
X129900Y76100
X129900Y86100
X129900Y96100
X129900Y106100
X84900Y98900
X64900Y98900
X64900Y56400
X84900Y56400
X76100Y40100
X101700Y40100
X101700Y22300
X115000Y15000
X125000Y15000
X135000Y15000
X145000Y15000
X155000Y15000
X165000Y15000
X175000Y15000
X185000Y15000
X205000Y15000
X215000Y15000
X225000Y15000
X235000Y15000
X245000Y15000
X255000Y15000
X265000Y15000
X275000Y15000
X295000Y15000
X305000Y15000
X315000Y15000
X325000Y15000
X335000Y15000
X345000Y15000
X355000Y15000
X365000Y15000
X375000Y35000
X385000Y35000
X385000Y45000
X375000Y45000
X375000Y55000
X385000Y55000
X385000Y65000
X375000Y65000
X375000Y75000
X385000Y75000
X385000Y85000
X375000Y85000
X375000Y95000
X385000Y95000
X385000Y105000
X375000Y105000
X375000Y115000
X385000Y115000
X385000Y125000
X375000Y125000
X375000Y135000
X385000Y135000
X385000Y145000
X375000Y145000
X375000Y155000
X385000Y155000
X385000Y165000
X375000Y165000
X375000Y175000
X385000Y175000
X385000Y185000
X375000Y185000
X375000Y195000
X385000Y195000
X385000Y205000
X375000Y205000
X345000Y205000
X335000Y205000
X325000Y205000
X315000Y205000
X305000Y205000
X295000Y205000
X285000Y205000
X275000Y205000
X255000Y205000
X245000Y205000
X235000Y205000
X225000Y205000
X215000Y205000
X205000Y205000
X195000Y205000
X185000Y205000
X169000Y205000
X159000Y205000
X149000Y205000
X139000Y205000
X129000Y205000
X119000Y205000
X109000Y205000
X99000Y205000
X89000Y205000
X79000Y205000
X226300Y137200
X226300Y127200
X226300Y117200
X226300Y107200
X226300Y97200
X226300Y87200
X226300Y77200
X276900Y107900
X286900Y107900
X296900Y107900
X306900Y107900
X316900Y107900
X326900Y107900
X316900Y37900
X306900Y37900
X296900Y37900
X286900Y37900
X76100Y22300
T04
X24900Y37813
X24900Y51593
X24900Y70313
X24900Y84093
X24900Y102813
X24900Y116593
X24900Y136513
X24900Y150293
X24900Y169613
X24900Y183393
T05
X55700Y172700
X69100Y172700
X69100Y133700
X55700Y133700
T06
X60000Y15000
X385000Y15000
X360000Y205000
X65000Y205000
M30
